<mxfile host="Electron" agent="Mozilla/5.0 (X11; Linux x86_64) AppleWebKit/537.36 (KHTML, like Gecko) draw.io/24.7.8 Chrome/128.0.6613.36 Electron/32.0.1 Safari/537.36" version="24.7.8">
  <diagram name="Page-1" id="Yf4dLH-DFPRVyRR2dSYe">
    <mxGraphModel dx="1434" dy="1938" grid="1" gridSize="10" guides="1" tooltips="1" connect="1" arrows="1" fold="1" page="1" pageScale="1" pageWidth="850" pageHeight="1100" math="0" shadow="0">
      <root>
        <mxCell id="0" />
        <mxCell id="1" parent="0" />
        <mxCell id="7iYHZ1TR3xYtfkLIYV-I-2" value="PHILO 1" style="whiteSpace=wrap;html=1;" vertex="1" parent="1">
          <mxGeometry x="120" y="70" width="120" height="60" as="geometry" />
        </mxCell>
        <mxCell id="7iYHZ1TR3xYtfkLIYV-I-3" value="PHILO 2" style="whiteSpace=wrap;html=1;" vertex="1" parent="1">
          <mxGeometry x="365" y="70" width="120" height="60" as="geometry" />
        </mxCell>
        <mxCell id="7iYHZ1TR3xYtfkLIYV-I-4" value="PHILO 3" style="whiteSpace=wrap;html=1;" vertex="1" parent="1">
          <mxGeometry x="610" y="70" width="120" height="60" as="geometry" />
        </mxCell>
        <mxCell id="7iYHZ1TR3xYtfkLIYV-I-11" style="edgeStyle=orthogonalEdgeStyle;rounded=0;orthogonalLoop=1;jettySize=auto;html=1;exitX=1;exitY=0.5;exitDx=0;exitDy=0;entryX=0.5;entryY=0;entryDx=0;entryDy=0;endArrow=classic;endFill=1;startArrow=none;startFill=0;fillColor=#dae8fc;strokeColor=#6c8ebf;" edge="1" parent="1" source="7iYHZ1TR3xYtfkLIYV-I-6" target="7iYHZ1TR3xYtfkLIYV-I-8">
          <mxGeometry relative="1" as="geometry">
            <mxPoint x="610" y="520" as="targetPoint" />
          </mxGeometry>
        </mxCell>
        <mxCell id="7iYHZ1TR3xYtfkLIYV-I-5" value="Ft_Philo" style="rounded=1;whiteSpace=wrap;html=1;" vertex="1" parent="1">
          <mxGeometry x="365" y="220" width="120" height="60" as="geometry" />
        </mxCell>
        <mxCell id="7iYHZ1TR3xYtfkLIYV-I-6" value="EAT" style="rounded=1;whiteSpace=wrap;html=1;" vertex="1" parent="1">
          <mxGeometry x="365" y="490" width="120" height="60" as="geometry" />
        </mxCell>
        <mxCell id="7iYHZ1TR3xYtfkLIYV-I-7" value="SLEEP" style="rounded=1;whiteSpace=wrap;html=1;" vertex="1" parent="1">
          <mxGeometry x="365" y="670" width="120" height="60" as="geometry" />
        </mxCell>
        <mxCell id="7iYHZ1TR3xYtfkLIYV-I-8" value="THINK" style="rounded=1;whiteSpace=wrap;html=1;" vertex="1" parent="1">
          <mxGeometry x="485" y="580" width="120" height="60" as="geometry" />
        </mxCell>
        <mxCell id="7iYHZ1TR3xYtfkLIYV-I-12" style="edgeStyle=orthogonalEdgeStyle;rounded=0;orthogonalLoop=1;jettySize=auto;html=1;exitX=0.5;exitY=1;exitDx=0;exitDy=0;entryX=0.5;entryY=0;entryDx=0;entryDy=0;fillColor=#dae8fc;strokeColor=#6c8ebf;" edge="1" parent="1" source="7iYHZ1TR3xYtfkLIYV-I-6" target="7iYHZ1TR3xYtfkLIYV-I-7">
          <mxGeometry relative="1" as="geometry">
            <mxPoint x="400" y="640" as="targetPoint" />
            <mxPoint x="340" y="580" as="sourcePoint" />
          </mxGeometry>
        </mxCell>
        <mxCell id="7iYHZ1TR3xYtfkLIYV-I-13" style="edgeStyle=orthogonalEdgeStyle;rounded=0;orthogonalLoop=1;jettySize=auto;html=1;exitX=0.5;exitY=1;exitDx=0;exitDy=0;fillColor=#dae8fc;strokeColor=#6c8ebf;" edge="1" parent="1" target="7iYHZ1TR3xYtfkLIYV-I-6">
          <mxGeometry relative="1" as="geometry">
            <mxPoint x="360" y="530" as="targetPoint" />
            <mxPoint x="425" y="740" as="sourcePoint" />
            <Array as="points">
              <mxPoint x="425" y="760" />
              <mxPoint x="281" y="760" />
              <mxPoint x="281" y="540" />
            </Array>
          </mxGeometry>
        </mxCell>
        <mxCell id="7iYHZ1TR3xYtfkLIYV-I-14" style="edgeStyle=orthogonalEdgeStyle;rounded=0;orthogonalLoop=1;jettySize=auto;html=1;exitX=0.5;exitY=1;exitDx=0;exitDy=0;entryX=0;entryY=0.5;entryDx=0;entryDy=0;fillColor=#dae8fc;strokeColor=#6c8ebf;" edge="1" parent="1" source="7iYHZ1TR3xYtfkLIYV-I-8" target="7iYHZ1TR3xYtfkLIYV-I-6">
          <mxGeometry relative="1" as="geometry">
            <mxPoint x="449" y="560" as="targetPoint" />
            <mxPoint x="509" y="760" as="sourcePoint" />
            <Array as="points">
              <mxPoint x="545" y="780" />
              <mxPoint x="240" y="780" />
              <mxPoint x="240" y="520" />
            </Array>
          </mxGeometry>
        </mxCell>
        <mxCell id="7iYHZ1TR3xYtfkLIYV-I-16" value="DIE" style="rounded=1;whiteSpace=wrap;html=1;" vertex="1" parent="1">
          <mxGeometry x="670" y="580" width="120" height="60" as="geometry" />
        </mxCell>
        <mxCell id="7iYHZ1TR3xYtfkLIYV-I-17" value="" style="endArrow=classic;html=1;rounded=0;exitX=1;exitY=0.5;exitDx=0;exitDy=0;entryX=0;entryY=0.5;entryDx=0;entryDy=0;fillColor=#f8cecc;strokeColor=#b85450;" edge="1" parent="1" source="7iYHZ1TR3xYtfkLIYV-I-8" target="7iYHZ1TR3xYtfkLIYV-I-16">
          <mxGeometry width="50" height="50" relative="1" as="geometry">
            <mxPoint x="630" y="590" as="sourcePoint" />
            <mxPoint x="680" y="540" as="targetPoint" />
          </mxGeometry>
        </mxCell>
        <mxCell id="7iYHZ1TR3xYtfkLIYV-I-18" value="WHILE (thread-&amp;gt;State != DIE &amp;amp;&amp;amp; Turn_to_eat &amp;gt; 0)" style="rounded=1;whiteSpace=wrap;html=1;fontSize=17;" vertex="1" parent="1">
          <mxGeometry x="150" y="320" width="550" height="60" as="geometry" />
        </mxCell>
        <mxCell id="7iYHZ1TR3xYtfkLIYV-I-19" value="" style="endArrow=classic;html=1;rounded=0;exitX=0.5;exitY=1;exitDx=0;exitDy=0;entryX=0.25;entryY=0;entryDx=0;entryDy=0;" edge="1" parent="1" source="7iYHZ1TR3xYtfkLIYV-I-2" target="7iYHZ1TR3xYtfkLIYV-I-5">
          <mxGeometry width="50" height="50" relative="1" as="geometry">
            <mxPoint x="400" y="290" as="sourcePoint" />
            <mxPoint x="450" y="240" as="targetPoint" />
          </mxGeometry>
        </mxCell>
        <mxCell id="7iYHZ1TR3xYtfkLIYV-I-20" value="" style="endArrow=classic;html=1;rounded=0;exitX=0.5;exitY=1;exitDx=0;exitDy=0;entryX=0.75;entryY=0;entryDx=0;entryDy=0;" edge="1" parent="1" source="7iYHZ1TR3xYtfkLIYV-I-4" target="7iYHZ1TR3xYtfkLIYV-I-5">
          <mxGeometry width="50" height="50" relative="1" as="geometry">
            <mxPoint x="190" y="140" as="sourcePoint" />
            <mxPoint x="405" y="230" as="targetPoint" />
          </mxGeometry>
        </mxCell>
        <mxCell id="7iYHZ1TR3xYtfkLIYV-I-21" value="" style="endArrow=classic;html=1;rounded=0;exitX=0.5;exitY=1;exitDx=0;exitDy=0;entryX=0.5;entryY=0;entryDx=0;entryDy=0;" edge="1" parent="1" source="7iYHZ1TR3xYtfkLIYV-I-3" target="7iYHZ1TR3xYtfkLIYV-I-5">
          <mxGeometry width="50" height="50" relative="1" as="geometry">
            <mxPoint x="400" y="350" as="sourcePoint" />
            <mxPoint x="450" y="300" as="targetPoint" />
          </mxGeometry>
        </mxCell>
        <mxCell id="7iYHZ1TR3xYtfkLIYV-I-22" value="WHILE (To Initiate the thread)" style="rounded=1;whiteSpace=wrap;html=1;fontSize=17;" vertex="1" parent="1">
          <mxGeometry x="160" y="-30" width="550" height="60" as="geometry" />
        </mxCell>
        <mxCell id="7iYHZ1TR3xYtfkLIYV-I-23" value="FORK" style="whiteSpace=wrap;html=1;" vertex="1" parent="1">
          <mxGeometry x="530" y="220" width="120" height="60" as="geometry" />
        </mxCell>
        <mxCell id="7iYHZ1TR3xYtfkLIYV-I-24" value="" style="endArrow=none;html=1;rounded=0;entryX=0;entryY=0.5;entryDx=0;entryDy=0;exitX=1;exitY=0.5;exitDx=0;exitDy=0;" edge="1" parent="1" source="7iYHZ1TR3xYtfkLIYV-I-5" target="7iYHZ1TR3xYtfkLIYV-I-23">
          <mxGeometry width="50" height="50" relative="1" as="geometry">
            <mxPoint x="270" y="310" as="sourcePoint" />
            <mxPoint x="320" y="260" as="targetPoint" />
          </mxGeometry>
        </mxCell>
        <mxCell id="7iYHZ1TR3xYtfkLIYV-I-25" value="Is_two_fork()" style="rounded=1;whiteSpace=wrap;html=1;" vertex="1" parent="1">
          <mxGeometry x="365" y="410" width="120" height="60" as="geometry" />
        </mxCell>
        <mxCell id="7iYHZ1TR3xYtfkLIYV-I-26" value="" style="endArrow=classic;html=1;rounded=0;exitX=0.5;exitY=1;exitDx=0;exitDy=0;entryX=0.5;entryY=0;entryDx=0;entryDy=0;" edge="1" parent="1" source="7iYHZ1TR3xYtfkLIYV-I-18" target="7iYHZ1TR3xYtfkLIYV-I-25">
          <mxGeometry width="50" height="50" relative="1" as="geometry">
            <mxPoint x="520" y="470" as="sourcePoint" />
            <mxPoint x="570" y="420" as="targetPoint" />
          </mxGeometry>
        </mxCell>
        <mxCell id="7iYHZ1TR3xYtfkLIYV-I-27" value="" style="endArrow=classic;html=1;rounded=0;exitX=0.75;exitY=1;exitDx=0;exitDy=0;" edge="1" parent="1" source="7iYHZ1TR3xYtfkLIYV-I-18">
          <mxGeometry width="50" height="50" relative="1" as="geometry">
            <mxPoint x="340" y="510" as="sourcePoint" />
            <mxPoint x="563" y="576" as="targetPoint" />
          </mxGeometry>
        </mxCell>
        <mxCell id="7iYHZ1TR3xYtfkLIYV-I-28" value="Mutex_Lock" style="text;html=1;align=center;verticalAlign=middle;whiteSpace=wrap;rounded=0;fontColor=#F0F000;" vertex="1" parent="1">
          <mxGeometry x="435" y="380" width="60" height="30" as="geometry" />
        </mxCell>
        <mxCell id="7iYHZ1TR3xYtfkLIYV-I-29" value="Mutex_Unlock" style="text;html=1;align=center;verticalAlign=middle;whiteSpace=wrap;rounded=0;fontColor=#F0F000;" vertex="1" parent="1">
          <mxGeometry x="432" y="463" width="60" height="30" as="geometry" />
        </mxCell>
        <mxCell id="7iYHZ1TR3xYtfkLIYV-I-30" value="IF Mutex_lock" style="text;html=1;align=center;verticalAlign=middle;whiteSpace=wrap;rounded=0;fontColor=#F0F000;" vertex="1" parent="1">
          <mxGeometry x="570" y="433" width="60" height="30" as="geometry" />
        </mxCell>
      </root>
    </mxGraphModel>
  </diagram>
</mxfile>
